# xmcd
# 
# Track frame offsets:
#     150
#     11665
#     21457
#     32335
#     42855
#     60167
#     75312
#     90487
#     101270
#     111812
#     124992
#     138675
#     148640
#     156290
#     170397
#     184467
#     196307
#     203380
#     217030
#     234730
#     253337
# 
# Disc length: 3544
# 
# Revision: 2
# Processed by: cddbd v1.5.2PL0 Copyright (c) Steve Scherf et al.
# Submitted via: BonkEnc v1.0
# 
DISCID=1f0dd615
DTITLE=BLUESBERRY - Blues Berry
DYEAR=1987
DGENRE=Blues
TTITLE0=Stop Blues
TTITLE1=Blues o rodinne idylce
TTITLE2=Blues opustene silnice
TTITLE3=Blues veproveho ovaru
TTITLE4=Blusa blues
TTITLE5=Ja mam zenskou v Kladne
TTITLE6=Na rozlouceni my poteseni
TTITLE7=Blues o zajezdu do Prahy
TTITLE8=Emgeton blues
TTITLE9=Blues posledniho matche
TTITLE10=Brandejs
TTITLE11=Takovou zenu hledam
TTITLE12=A ty si chces jen hrat
TTITLE13=Za sto let
TTITLE14=Tentokrat ti zmizim na tutac
TTITLE15=Uz dlouhou dobu
TTITLE16=(bonus) Na jazzovejch dnech
TTITLE17=(bonus) Co je to blues?
TTITLE18=(bonus) Pivonka
TTITLE19=(bonus) Klanovice
TTITLE20=(bonus) Blues mokrejch bot
EXTD=Original - Digitally Remastered 2001
EXTT0=
EXTT1=
EXTT2=
EXTT3=
EXTT4=
EXTT5=
EXTT6=
EXTT7=
EXTT8=
EXTT9=
EXTT10=
EXTT11=
EXTT12=
EXTT13=
EXTT14=
EXTT15=
EXTT16=
EXTT17=
EXTT18=
EXTT19=
EXTT20=
PLAYORDER=
